# xmcd
#
# Track frame offsets: 
#        150
#        24855
#        42980
#        63540
#        89467
#        103647
#        122482
#        146125
#        161627
#        185760
#        204547
#        222630
#        237945
#        256185
#        277962
#        293975
#
# Disc length: 4183 seconds
#
# Revision: 3
# Processed by: cddbd v1.5.2PL0 Copyright (c) Steve Scherf et al.
# Submitted via: ExactAudioCopy v0.95b4
#
DISCID=f3105510
DTITLE=Indigo Girls - Retrospective
DYEAR=2000
DGENRE=Rock
TTITLE0=Strange Fire
TTITLE1=Closer to Fine
TTITLE2=Kid Fears
TTITLE3=Watershed
TTITLE4=Three Hits
TTITLE5=Galileo
TTITLE6=Ghost
TTITLE7=Reunion
TTITLE8=Power of Two
TTITLE9=Least Complicated
TTITLE10=Shame on You
TTITLE11=Get Out the Map
TTITLE12=Go
TTITLE13=Trouble
TTITLE14=Devotion
TTITLE15=Leaving
EXTD=
EXTT0=
EXTT1=
EXTT2=
EXTT3=
EXTT4=
EXTT5=
EXTT6=
EXTT7=
EXTT8=
EXTT9=
EXTT10=
EXTT11=
EXTT12=
EXTT13=
EXTT14=
EXTT15=
PLAYORDER=
